<?xml version="1.0" encoding="UTF-8" standalone="no"?>
<!DOCTYPE svg PUBLIC "-//W3C//DTD SVG 1.1//EN"
 "http://www.w3.org/Graphics/SVG/1.1/DTD/svg11.dtd">
<!-- Generated by graphviz version 14.0.2 (20251019.1705)
 -->
<!-- Title: G Pages: 1 -->
<svg width="1904pt" height="419pt"
 viewBox="0.00 0.00 1904.00 419.00" xmlns="http://www.w3.org/2000/svg" xmlns:xlink="http://www.w3.org/1999/xlink">
<g id="graph0" class="graph" transform="scale(1 1) rotate(0) translate(4 415.04)">
<title>G</title><style>.edge>path:hover{stroke-width:8}</style>
<polygon fill="white" stroke="none" points="-4,4 -4,-415.04 1899.56,-415.04 1899.56,4 -4,4"/>
<!-- bs4 -->
<g id="node1" class="node">
<title>bs4</title><style>.edge>path:hover{stroke-width:8}</style>
<ellipse fill="#c04040" stroke="black" cx="119.56" cy="-393.04" rx="27" ry="18"/>
<text xml:space="preserve" text-anchor="middle" x="119.56" y="-389.17" font-family="Helvetica,sans-Serif" font-size="10.00" fill="#ffffff">bs4</text>
</g>
<!-- data_pipeline_scripts_bluebikes_data_helpers_download_data -->
<g id="node3" class="node">
<title>data_pipeline_scripts_bluebikes_data_helpers_download_data</title><style>.edge>path:hover{stroke-width:8}</style>
<ellipse fill="#ac9d49" stroke="black" cx="85.56" cy="-132.52" rx="85.56" ry="37.48"/>
<text xml:space="preserve" text-anchor="middle" x="85.56" y="-145.52" font-family="Helvetica,sans-Serif" font-size="10.00" fill="#000000">data_pipeline.</text>
<text xml:space="preserve" text-anchor="middle" x="85.56" y="-134.27" font-family="Helvetica,sans-Serif" font-size="10.00" fill="#000000">scripts.</text>
<text xml:space="preserve" text-anchor="middle" x="85.56" y="-123.02" font-family="Helvetica,sans-Serif" font-size="10.00" fill="#000000">bluebikes_data_helpers.</text>
<text xml:space="preserve" text-anchor="middle" x="85.56" y="-111.77" font-family="Helvetica,sans-Serif" font-size="10.00" fill="#000000">download_data</text>
</g>
<!-- bs4&#45;&gt;data_pipeline_scripts_bluebikes_data_helpers_download_data -->
<g id="edge1" class="edge">
<title>bs4&#45;&gt;data_pipeline_scripts_bluebikes_data_helpers_download_data</title><style>.edge>path:hover{stroke-width:8}</style>
<path fill="none" stroke="black" d="M119.56,-234.52C111.41,-217.56 104.37,-198.13 98.84,-180.87"/>
<polygon fill="#c04040" stroke="black" points="102.19,-179.85 95.88,-171.34 95.5,-181.93 102.19,-179.85"/>
<path fill="none" stroke="black" d="M124.1,-375.11C131.13,-345.36 141.67,-282.51 119.56,-236.52"/>
</g>
<!-- data_pipeline_scripts -->
<g id="node2" class="node">
<title>data_pipeline_scripts</title><style>.edge>path:hover{stroke-width:8}</style>
<ellipse fill="#e7cb22" stroke="black" cx="1136.56" cy="-235.52" rx="53.74" ry="21.57"/>
<text xml:space="preserve" text-anchor="middle" x="1136.56" y="-237.27" font-family="Helvetica,sans-Serif" font-size="10.00" fill="#000000">data_pipeline.</text>
<text xml:space="preserve" text-anchor="middle" x="1136.56" y="-226.02" font-family="Helvetica,sans-Serif" font-size="10.00" fill="#000000">scripts</text>
</g>
<!-- data_pipeline_tests_test_data_collection -->
<g id="node16" class="node">
<title>data_pipeline_tests_test_data_collection</title><style>.edge>path:hover{stroke-width:8}</style>
<ellipse fill="#a49746" stroke="black" cx="1216.56" cy="-29.52" rx="72.83" ry="29.52"/>
<text xml:space="preserve" text-anchor="middle" x="1216.56" y="-36.9" font-family="Helvetica,sans-Serif" font-size="10.00" fill="#000000">data_pipeline.</text>
<text xml:space="preserve" text-anchor="middle" x="1216.56" y="-25.65" font-family="Helvetica,sans-Serif" font-size="10.00" fill="#000000">tests.</text>
<text xml:space="preserve" text-anchor="middle" x="1216.56" y="-14.4" font-family="Helvetica,sans-Serif" font-size="10.00" fill="#000000">test_data_collection</text>
</g>
<!-- data_pipeline_scripts&#45;&gt;data_pipeline_tests_test_data_collection -->
<g id="edge2" class="edge">
<title>data_pipeline_scripts&#45;&gt;data_pipeline_tests_test_data_collection</title><style>.edge>path:hover{stroke-width:8}</style>
<path fill="none" stroke="black" d="M1176.56,-131.52C1173.73,-109.69 1181.8,-86.76 1191.42,-68.28"/>
<polygon fill="#e7cb22" stroke="black" points="1194.47,-70 1196.29,-59.56 1188.36,-66.59 1194.47,-70"/>
</g>
<!-- data_pipeline_tests_test_data_loader -->
<g id="node17" class="node">
<title>data_pipeline_tests_test_data_loader</title><style>.edge>path:hover{stroke-width:8}</style>
<ellipse fill="#9d9043" stroke="black" cx="1369.56" cy="-29.52" rx="62.23" ry="29.52"/>
<text xml:space="preserve" text-anchor="middle" x="1369.56" y="-36.9" font-family="Helvetica,sans-Serif" font-size="10.00" fill="#000000">data_pipeline.</text>
<text xml:space="preserve" text-anchor="middle" x="1369.56" y="-25.65" font-family="Helvetica,sans-Serif" font-size="10.00" fill="#000000">tests.</text>
<text xml:space="preserve" text-anchor="middle" x="1369.56" y="-14.4" font-family="Helvetica,sans-Serif" font-size="10.00" fill="#000000">test_data_loader</text>
</g>
<!-- data_pipeline_scripts&#45;&gt;data_pipeline_tests_test_data_loader -->
<g id="edge3" class="edge">
<title>data_pipeline_scripts&#45;&gt;data_pipeline_tests_test_data_loader</title><style>.edge>path:hover{stroke-width:8}</style>
<path fill="none" stroke="black" d="M1176.56,-131.52C1174.56,-116.07 1255.06,-78.68 1312.71,-53.98"/>
<polygon fill="#e7cb22" stroke="black" points="1313.96,-57.26 1321.79,-50.12 1311.22,-50.82 1313.96,-57.26"/>
</g>
<!-- data_pipeline_tests_test_duplicate_data -->
<g id="node18" class="node">
<title>data_pipeline_tests_test_duplicate_data</title><style>.edge>path:hover{stroke-width:8}</style>
<ellipse fill="#9d9043" stroke="black" cx="766.56" cy="-29.52" rx="71.24" ry="29.52"/>
<text xml:space="preserve" text-anchor="middle" x="766.56" y="-36.9" font-family="Helvetica,sans-Serif" font-size="10.00" fill="#000000">data_pipeline.</text>
<text xml:space="preserve" text-anchor="middle" x="766.56" y="-25.65" font-family="Helvetica,sans-Serif" font-size="10.00" fill="#000000">tests.</text>
<text xml:space="preserve" text-anchor="middle" x="766.56" y="-14.4" font-family="Helvetica,sans-Serif" font-size="10.00" fill="#000000">test_duplicate_data</text>
</g>
<!-- data_pipeline_scripts&#45;&gt;data_pipeline_tests_test_duplicate_data -->
<g id="edge4" class="edge">
<title>data_pipeline_scripts&#45;&gt;data_pipeline_tests_test_duplicate_data</title><style>.edge>path:hover{stroke-width:8}</style>
<path fill="none" stroke="black" d="M1176.56,-131.52C1172.23,-98.07 962.18,-60.51 844.47,-42.04"/>
<polygon fill="#e7cb22" stroke="black" points="845.29,-38.63 834.87,-40.55 844.21,-45.54 845.29,-38.63"/>
<path fill="none" stroke="black" d="M1151.34,-214.44C1164.25,-194.62 1180.38,-163.07 1176.56,-133.52"/>
</g>
<!-- data_pipeline_tests_test_missing_value -->
<g id="node19" class="node">
<title>data_pipeline_tests_test_missing_value</title><style>.edge>path:hover{stroke-width:8}</style>
<ellipse fill="#9d9043" stroke="black" cx="1054.56" cy="-29.52" rx="70.71" ry="29.52"/>
<text xml:space="preserve" text-anchor="middle" x="1054.56" y="-36.9" font-family="Helvetica,sans-Serif" font-size="10.00" fill="#000000">data_pipeline.</text>
<text xml:space="preserve" text-anchor="middle" x="1054.56" y="-25.65" font-family="Helvetica,sans-Serif" font-size="10.00" fill="#000000">tests.</text>
<text xml:space="preserve" text-anchor="middle" x="1054.56" y="-14.4" font-family="Helvetica,sans-Serif" font-size="10.00" fill="#000000">test_missing_value</text>
</g>
<!-- data_pipeline_scripts&#45;&gt;data_pipeline_tests_test_missing_value -->
<g id="edge5" class="edge">
<title>data_pipeline_scripts&#45;&gt;data_pipeline_tests_test_missing_value</title><style>.edge>path:hover{stroke-width:8}</style>
<path fill="none" stroke="black" d="M1176.56,-131.52C1172.17,-97.61 1143.27,-72.82 1114.69,-56.28"/>
<polygon fill="#e7cb22" stroke="black" points="1116.42,-53.24 1105.97,-51.5 1113.06,-59.38 1116.42,-53.24"/>
</g>
<!-- data_pipeline_scripts_bluebikes_data_helpers_normalize -->
<g id="node4" class="node">
<title>data_pipeline_scripts_bluebikes_data_helpers_normalize</title><style>.edge>path:hover{stroke-width:8}</style>
<ellipse fill="#b3a44c" stroke="black" cx="497.56" cy="-132.52" rx="85.56" ry="37.48"/>
<text xml:space="preserve" text-anchor="middle" x="497.56" y="-145.52" font-family="Helvetica,sans-Serif" font-size="10.00" fill="#000000">data_pipeline.</text>
<text xml:space="preserve" text-anchor="middle" x="497.56" y="-134.27" font-family="Helvetica,sans-Serif" font-size="10.00" fill="#000000">scripts.</text>
<text xml:space="preserve" text-anchor="middle" x="497.56" y="-123.02" font-family="Helvetica,sans-Serif" font-size="10.00" fill="#000000">bluebikes_data_helpers.</text>
<text xml:space="preserve" text-anchor="middle" x="497.56" y="-111.77" font-family="Helvetica,sans-Serif" font-size="10.00" fill="#000000">normalize</text>
</g>
<!-- data_pipeline_scripts_bluebikes_data_helpers_read_zips -->
<g id="node5" class="node">
<title>data_pipeline_scripts_bluebikes_data_helpers_read_zips</title><style>.edge>path:hover{stroke-width:8}</style>
<ellipse fill="#b3a44c" stroke="black" cx="725.56" cy="-132.52" rx="85.56" ry="37.48"/>
<text xml:space="preserve" text-anchor="middle" x="725.56" y="-145.52" font-family="Helvetica,sans-Serif" font-size="10.00" fill="#000000">data_pipeline.</text>
<text xml:space="preserve" text-anchor="middle" x="725.56" y="-134.27" font-family="Helvetica,sans-Serif" font-size="10.00" fill="#000000">scripts.</text>
<text xml:space="preserve" text-anchor="middle" x="725.56" y="-123.02" font-family="Helvetica,sans-Serif" font-size="10.00" fill="#000000">bluebikes_data_helpers.</text>
<text xml:space="preserve" text-anchor="middle" x="725.56" y="-111.77" font-family="Helvetica,sans-Serif" font-size="10.00" fill="#000000">read_zips</text>
</g>
<!-- data_pipeline_scripts_bluebikes_data_helpers_record_file -->
<g id="node6" class="node">
<title>data_pipeline_scripts_bluebikes_data_helpers_record_file</title><style>.edge>path:hover{stroke-width:8}</style>
<ellipse fill="#b3a44c" stroke="black" cx="914.56" cy="-132.52" rx="85.56" ry="37.48"/>
<text xml:space="preserve" text-anchor="middle" x="914.56" y="-145.52" font-family="Helvetica,sans-Serif" font-size="10.00" fill="#000000">data_pipeline.</text>
<text xml:space="preserve" text-anchor="middle" x="914.56" y="-134.27" font-family="Helvetica,sans-Serif" font-size="10.00" fill="#000000">scripts.</text>
<text xml:space="preserve" text-anchor="middle" x="914.56" y="-123.02" font-family="Helvetica,sans-Serif" font-size="10.00" fill="#000000">bluebikes_data_helpers.</text>
<text xml:space="preserve" text-anchor="middle" x="914.56" y="-111.77" font-family="Helvetica,sans-Serif" font-size="10.00" fill="#000000">record_file</text>
</g>
<!-- data_pipeline_scripts_correlation_matrix -->
<g id="node7" class="node">
<title>data_pipeline_scripts_correlation_matrix</title><style>.edge>path:hover{stroke-width:8}</style>
<ellipse fill="#b3a44c" stroke="black" cx="1648.56" cy="-235.52" rx="65.94" ry="29.52"/>
<text xml:space="preserve" text-anchor="middle" x="1648.56" y="-242.89" font-family="Helvetica,sans-Serif" font-size="10.00" fill="#000000">data_pipeline.</text>
<text xml:space="preserve" text-anchor="middle" x="1648.56" y="-231.64" font-family="Helvetica,sans-Serif" font-size="10.00" fill="#000000">scripts.</text>
<text xml:space="preserve" text-anchor="middle" x="1648.56" y="-220.39" font-family="Helvetica,sans-Serif" font-size="10.00" fill="#000000">correlation_matrix</text>
</g>
<!-- data_pipeline_scripts_data_collection -->
<g id="node8" class="node">
<title>data_pipeline_scripts_data_collection</title><style>.edge>path:hover{stroke-width:8}</style>
<ellipse fill="#c2b147" stroke="black" cx="1265.56" cy="-235.52" rx="57.45" ry="29.52"/>
<text xml:space="preserve" text-anchor="middle" x="1265.56" y="-242.89" font-family="Helvetica,sans-Serif" font-size="10.00" fill="#000000">data_pipeline.</text>
<text xml:space="preserve" text-anchor="middle" x="1265.56" y="-231.64" font-family="Helvetica,sans-Serif" font-size="10.00" fill="#000000">scripts.</text>
<text xml:space="preserve" text-anchor="middle" x="1265.56" y="-220.39" font-family="Helvetica,sans-Serif" font-size="10.00" fill="#000000">data_collection</text>
</g>
<!-- data_pipeline_scripts_data_collection&#45;&gt;data_pipeline_tests_test_data_collection -->
<g id="edge6" class="edge">
<title>data_pipeline_scripts_data_collection&#45;&gt;data_pipeline_tests_test_data_collection</title><style>.edge>path:hover{stroke-width:8}</style>
<path fill="none" stroke="black" d="M1258.64,-205.72C1250.14,-170.34 1235.68,-110.11 1226.12,-70.31"/>
<polygon fill="#c2b147" stroke="black" points="1229.53,-69.55 1223.79,-60.64 1222.73,-71.18 1229.53,-69.55"/>
</g>
<!-- data_pipeline_scripts_data_loader -->
<g id="node9" class="node">
<title>data_pipeline_scripts_data_loader</title><style>.edge>path:hover{stroke-width:8}</style>
<ellipse fill="#c0ad40" stroke="black" cx="1786.56" cy="-235.52" rx="53.74" ry="29.52"/>
<text xml:space="preserve" text-anchor="middle" x="1786.56" y="-242.89" font-family="Helvetica,sans-Serif" font-size="10.00" fill="#000000">data_pipeline.</text>
<text xml:space="preserve" text-anchor="middle" x="1786.56" y="-231.64" font-family="Helvetica,sans-Serif" font-size="10.00" fill="#000000">scripts.</text>
<text xml:space="preserve" text-anchor="middle" x="1786.56" y="-220.39" font-family="Helvetica,sans-Serif" font-size="10.00" fill="#000000">data_loader</text>
</g>
<!-- data_pipeline_scripts_data_loader&#45;&gt;data_pipeline_tests_test_data_loader -->
<g id="edge7" class="edge">
<title>data_pipeline_scripts_data_loader&#45;&gt;data_pipeline_tests_test_data_loader</title><style>.edge>path:hover{stroke-width:8}</style>
<path fill="none" stroke="black" d="M1745.61,-215.84C1738.28,-212.53 1730.7,-209.14 1723.56,-206 1648.77,-173.04 1621.22,-180.81 1554.56,-133.52"/>
</g>
<!-- data_pipeline_scripts_discord_notifier -->
<g id="node10" class="node">
<title>data_pipeline_scripts_discord_notifier</title><style>.edge>path:hover{stroke-width:8}</style>
<ellipse fill="#b3a44c" stroke="black" cx="205.56" cy="-235.52" rx="57.98" ry="29.52"/>
<text xml:space="preserve" text-anchor="middle" x="205.56" y="-242.89" font-family="Helvetica,sans-Serif" font-size="10.00" fill="#000000">data_pipeline.</text>
<text xml:space="preserve" text-anchor="middle" x="205.56" y="-231.64" font-family="Helvetica,sans-Serif" font-size="10.00" fill="#000000">scripts.</text>
<text xml:space="preserve" text-anchor="middle" x="205.56" y="-220.39" font-family="Helvetica,sans-Serif" font-size="10.00" fill="#000000">discord_notifier</text>
</g>
<!-- data_pipeline_scripts_duplicate_data -->
<g id="node11" class="node">
<title>data_pipeline_scripts_duplicate_data</title><style>.edge>path:hover{stroke-width:8}</style>
<ellipse fill="#b8a63d" stroke="black" cx="804.56" cy="-235.52" rx="55.86" ry="29.52"/>
<text xml:space="preserve" text-anchor="middle" x="804.56" y="-242.89" font-family="Helvetica,sans-Serif" font-size="10.00" fill="#000000">data_pipeline.</text>
<text xml:space="preserve" text-anchor="middle" x="804.56" y="-231.64" font-family="Helvetica,sans-Serif" font-size="10.00" fill="#000000">scripts.</text>
<text xml:space="preserve" text-anchor="middle" x="804.56" y="-220.39" font-family="Helvetica,sans-Serif" font-size="10.00" fill="#000000">duplicate_data</text>
</g>
<!-- data_pipeline_scripts_duplicate_data&#45;&gt;data_pipeline_tests_test_duplicate_data -->
<g id="edge8" class="edge">
<title>data_pipeline_scripts_duplicate_data&#45;&gt;data_pipeline_tests_test_duplicate_data</title><style>.edge>path:hover{stroke-width:8}</style>
<path fill="none" stroke="black" d="M751.79,-225.44C714.3,-216.69 664.75,-200.15 630.56,-170 616.85,-157.9 610.57,-151.77 611.56,-133.52"/>
</g>
<!-- data_pipeline_scripts_missing_value -->
<g id="node12" class="node">
<title>data_pipeline_scripts_missing_value</title><style>.edge>path:hover{stroke-width:8}</style>
<ellipse fill="#b8a63d" stroke="black" cx="971.56" cy="-235.52" rx="55.33" ry="29.52"/>
<text xml:space="preserve" text-anchor="middle" x="971.56" y="-242.89" font-family="Helvetica,sans-Serif" font-size="10.00" fill="#000000">data_pipeline.</text>
<text xml:space="preserve" text-anchor="middle" x="971.56" y="-231.64" font-family="Helvetica,sans-Serif" font-size="10.00" fill="#000000">scripts.</text>
<text xml:space="preserve" text-anchor="middle" x="971.56" y="-220.39" font-family="Helvetica,sans-Serif" font-size="10.00" fill="#000000">missing_value</text>
</g>
<!-- data_pipeline_scripts_missing_value&#45;&gt;data_pipeline_tests_test_missing_value -->
<g id="edge9" class="edge">
<title>data_pipeline_scripts_missing_value&#45;&gt;data_pipeline_tests_test_missing_value</title><style>.edge>path:hover{stroke-width:8}</style>
<path fill="none" stroke="black" d="M1002.63,-211.09C1023.56,-192.77 1048.43,-165.16 1054.56,-133.52"/>
<path fill="none" stroke="black" d="M1054.56,-131.52C1058.41,-111.66 1058.79,-89.18 1058.05,-70.48"/>
<polygon fill="#b8a63d" stroke="black" points="1061.55,-70.41 1057.52,-60.61 1054.56,-70.78 1061.55,-70.41"/>
</g>
<!-- data_pipeline_scripts_school_noaa_data_collectors_BostonColleges -->
<g id="node13" class="node">
<title>data_pipeline_scripts_school_noaa_data_collectors_BostonColleges</title><style>.edge>path:hover{stroke-width:8}</style>
<ellipse fill="#ac9d49" stroke="black" cx="291.56" cy="-132.52" rx="102.53" ry="37.48"/>
<text xml:space="preserve" text-anchor="middle" x="291.56" y="-145.52" font-family="Helvetica,sans-Serif" font-size="10.00" fill="#000000">data_pipeline.</text>
<text xml:space="preserve" text-anchor="middle" x="291.56" y="-134.27" font-family="Helvetica,sans-Serif" font-size="10.00" fill="#000000">scripts.</text>
<text xml:space="preserve" text-anchor="middle" x="291.56" y="-123.02" font-family="Helvetica,sans-Serif" font-size="10.00" fill="#000000">school_noaa_data_collectors.</text>
<text xml:space="preserve" text-anchor="middle" x="291.56" y="-111.77" font-family="Helvetica,sans-Serif" font-size="10.00" fill="#000000">BostonColleges</text>
</g>
<!-- data_pipeline_scripts_school_noaa_data_collectors_NOAA_DataAcq -->
<g id="node14" class="node">
<title>data_pipeline_scripts_school_noaa_data_collectors_NOAA_DataAcq</title><style>.edge>path:hover{stroke-width:8}</style>
<ellipse fill="#9d9043" stroke="black" cx="1776.56" cy="-132.52" rx="102.53" ry="37.48"/>
<text xml:space="preserve" text-anchor="middle" x="1776.56" y="-145.52" font-family="Helvetica,sans-Serif" font-size="10.00" fill="#000000">data_pipeline.</text>
<text xml:space="preserve" text-anchor="middle" x="1776.56" y="-134.27" font-family="Helvetica,sans-Serif" font-size="10.00" fill="#000000">scripts.</text>
<text xml:space="preserve" text-anchor="middle" x="1776.56" y="-123.02" font-family="Helvetica,sans-Serif" font-size="10.00" fill="#000000">school_noaa_data_collectors.</text>
<text xml:space="preserve" text-anchor="middle" x="1776.56" y="-111.77" font-family="Helvetica,sans-Serif" font-size="10.00" fill="#000000">NOAA_DataAcq</text>
</g>
<!-- data_pipeline_scripts_station_ids_mapping -->
<g id="node15" class="node">
<title>data_pipeline_scripts_station_ids_mapping</title><style>.edge>path:hover{stroke-width:8}</style>
<ellipse fill="#b3a44c" stroke="black" cx="1452.56" cy="-235.52" rx="74.42" ry="29.52"/>
<text xml:space="preserve" text-anchor="middle" x="1452.56" y="-242.89" font-family="Helvetica,sans-Serif" font-size="10.00" fill="#000000">data_pipeline.</text>
<text xml:space="preserve" text-anchor="middle" x="1452.56" y="-231.64" font-family="Helvetica,sans-Serif" font-size="10.00" fill="#000000">scripts.</text>
<text xml:space="preserve" text-anchor="middle" x="1452.56" y="-220.39" font-family="Helvetica,sans-Serif" font-size="10.00" fill="#000000">station_ids_mapping</text>
</g>
<!-- dotenv -->
<g id="node20" class="node">
<title>dotenv</title><style>.edge>path:hover{stroke-width:8}</style>
<ellipse fill="#70b653" stroke="black" cx="1796.56" cy="-393.04" rx="27" ry="18"/>
<text xml:space="preserve" text-anchor="middle" x="1796.56" y="-389.17" font-family="Helvetica,sans-Serif" font-size="10.00" fill="#000000">dotenv</text>
</g>
<!-- dotenv&#45;&gt;data_pipeline_scripts_school_noaa_data_collectors_NOAA_DataAcq -->
<g id="edge10" class="edge">
<title>dotenv&#45;&gt;data_pipeline_scripts_school_noaa_data_collectors_NOAA_DataAcq</title><style>.edge>path:hover{stroke-width:8}</style>
<path fill="none" stroke="black" d="M1868.56,-338.04C1881.54,-294.83 1861.79,-281.13 1868.56,-236.52"/>
<path fill="none" stroke="black" d="M1816.82,-380.63C1836.57,-368.94 1864.26,-350.86 1868.56,-339.04"/>
</g>
<!-- numpy -->
<g id="node21" class="node">
<title>numpy</title><style>.edge>path:hover{stroke-width:8}</style>
<ellipse fill="#33cc8a" stroke="black" cx="805.56" cy="-393.04" rx="27" ry="18"/>
<text xml:space="preserve" text-anchor="middle" x="805.56" y="-389.17" font-family="Helvetica,sans-Serif" font-size="10.00" fill="#000000">numpy</text>
</g>
<!-- numpy&#45;&gt;data_pipeline_scripts_duplicate_data -->
<g id="edge11" class="edge">
<title>numpy&#45;&gt;data_pipeline_scripts_duplicate_data</title><style>.edge>path:hover{stroke-width:8}</style>
<path fill="none" stroke="black" d="M805.45,-374.8C805.3,-351.28 805.02,-308.41 804.82,-276.62"/>
<polygon fill="#33cc8a" stroke="black" points="808.32,-276.95 804.76,-266.97 801.32,-277 808.32,-276.95"/>
</g>
<!-- numpy&#45;&gt;data_pipeline_scripts_missing_value -->
<g id="edge12" class="edge">
<title>numpy&#45;&gt;data_pipeline_scripts_missing_value</title><style>.edge>path:hover{stroke-width:8}</style>
<path fill="none" stroke="black" d="M826.15,-381.26C846.99,-369.76 876.68,-351.53 880.56,-339.04"/>
<path fill="none" stroke="black" d="M880.56,-338.04C889.29,-309.96 910.98,-285.22 931,-267.19"/>
<polygon fill="#33cc8a" stroke="black" points="933.02,-270.07 938.29,-260.88 928.44,-264.78 933.02,-270.07"/>
</g>
<!-- pandas -->
<g id="node22" class="node">
<title>pandas</title><style>.edge>path:hover{stroke-width:8}</style>
<ellipse fill="#0691f9" stroke="black" cx="880.56" cy="-393.04" rx="28.11" ry="18"/>
<text xml:space="preserve" text-anchor="middle" x="880.56" y="-389.17" font-family="Helvetica,sans-Serif" font-size="10.00" fill="#ffffff">pandas</text>
</g>
<!-- pandas&#45;&gt;data_pipeline_scripts_bluebikes_data_helpers_normalize -->
<g id="edge13" class="edge">
<title>pandas&#45;&gt;data_pipeline_scripts_bluebikes_data_helpers_normalize</title><style>.edge>path:hover{stroke-width:8}</style>
<path fill="none" stroke="black" d="M497.56,-234.52C490.73,-218.04 489.33,-198.71 490.12,-181.4"/>
<polygon fill="#0691f9" stroke="black" points="493.58,-182.1 490.81,-171.87 486.6,-181.59 493.58,-182.1"/>
</g>
<!-- pandas&#45;&gt;data_pipeline_scripts_bluebikes_data_helpers_read_zips -->
<g id="edge14" class="edge">
<title>pandas&#45;&gt;data_pipeline_scripts_bluebikes_data_helpers_read_zips</title><style>.edge>path:hover{stroke-width:8}</style>
<path fill="none" stroke="black" d="M888.56,-234.52C888.81,-211.56 841.46,-184.02 797.74,-163.5"/>
<polygon fill="#0691f9" stroke="black" points="799.25,-160.34 788.7,-159.34 796.32,-166.7 799.25,-160.34"/>
<path fill="none" stroke="black" d="M842.56,-301.04C835.64,-282.27 858.01,-281.37 869.56,-265.04 878.36,-252.6 888.4,-251.75 888.56,-236.52"/>
</g>
<!-- pandas&#45;&gt;data_pipeline_scripts_bluebikes_data_helpers_record_file -->
<g id="edge15" class="edge">
<title>pandas&#45;&gt;data_pipeline_scripts_bluebikes_data_helpers_record_file</title><style>.edge>path:hover{stroke-width:8}</style>
<path fill="none" stroke="black" d="M888.56,-234.52C888.75,-216.55 892.71,-197.33 897.47,-180.53"/>
<polygon fill="#0691f9" stroke="black" points="900.71,-181.91 900.25,-171.33 894.01,-179.89 900.71,-181.91"/>
</g>
<!-- pandas&#45;&gt;data_pipeline_scripts_correlation_matrix -->
<g id="edge16" class="edge">
<title>pandas&#45;&gt;data_pipeline_scripts_correlation_matrix</title><style>.edge>path:hover{stroke-width:8}</style>
<path fill="none" stroke="black" d="M1648.56,-301.04C1644.85,-293.6 1643.29,-285.04 1642.95,-276.65"/>
<polygon fill="#0691f9" stroke="black" points="1646.44,-277 1643.12,-266.94 1639.44,-276.87 1646.44,-277"/>
</g>
<!-- pandas&#45;&gt;data_pipeline_scripts_data_loader -->
<g id="edge17" class="edge">
<title>pandas&#45;&gt;data_pipeline_scripts_data_loader</title><style>.edge>path:hover{stroke-width:8}</style>
<path fill="none" stroke="black" d="M1648.56,-301.04C1648,-299.93 1695.83,-277.81 1735.32,-259.78"/>
<polygon fill="#0691f9" stroke="black" points="1736.64,-263.02 1744.29,-255.69 1733.74,-256.65 1736.64,-263.02"/>
</g>
<!-- pandas&#45;&gt;data_pipeline_scripts_duplicate_data -->
<g id="edge18" class="edge">
<title>pandas&#45;&gt;data_pipeline_scripts_duplicate_data</title><style>.edge>path:hover{stroke-width:8}</style>
<path fill="none" stroke="black" d="M842.56,-301.04C839.13,-291.75 834.38,-282.27 829.4,-273.54"/>
<polygon fill="#0691f9" stroke="black" points="832.42,-271.78 824.28,-265 826.41,-275.37 832.42,-271.78"/>
</g>
<!-- pandas&#45;&gt;data_pipeline_scripts_missing_value -->
<g id="edge19" class="edge">
<title>pandas&#45;&gt;data_pipeline_scripts_missing_value</title><style>.edge>path:hover{stroke-width:8}</style>
<path fill="none" stroke="black" d="M878.02,-374.95C877.07,-364.37 876.96,-350.64 880.56,-339.04"/>
</g>
<!-- pandas&#45;&gt;data_pipeline_scripts_school_noaa_data_collectors_BostonColleges -->
<g id="edge20" class="edge">
<title>pandas&#45;&gt;data_pipeline_scripts_school_noaa_data_collectors_BostonColleges</title><style>.edge>path:hover{stroke-width:8}</style>
<path fill="none" stroke="black" d="M857.92,-382.04C852.57,-379.72 846.87,-377.27 841.56,-375.04 689.56,-311.32 560.63,-388.79 497.56,-236.52"/>
<path fill="none" stroke="black" d="M497.56,-234.52C480.26,-213.3 422.13,-185.75 372.02,-164.78"/>
<polygon fill="#0691f9" stroke="black" points="373.44,-161.58 362.86,-160.99 370.76,-168.05 373.44,-161.58"/>
</g>
<!-- pandas&#45;&gt;data_pipeline_scripts_school_noaa_data_collectors_NOAA_DataAcq -->
<g id="edge21" class="edge">
<title>pandas&#45;&gt;data_pipeline_scripts_school_noaa_data_collectors_NOAA_DataAcq</title><style>.edge>path:hover{stroke-width:8}</style>
<path fill="none" stroke="black" d="M1648.56,-301.04C1603.08,-209.86 1853.71,-337.33 1868.56,-236.52"/>
<path fill="none" stroke="black" d="M1868.56,-234.52C1872.17,-210 1857.51,-188.67 1838.88,-172.01"/>
<polygon fill="#0691f9" stroke="black" points="1841.19,-169.37 1831.26,-165.66 1836.7,-174.75 1841.19,-169.37"/>
</g>
<!-- pandas&#45;&gt;data_pipeline_scripts_station_ids_mapping -->
<g id="edge22" class="edge">
<title>pandas&#45;&gt;data_pipeline_scripts_station_ids_mapping</title><style>.edge>path:hover{stroke-width:8}</style>
<path fill="none" stroke="black" d="M1648.56,-301.04C1648.17,-300.26 1576.61,-276.84 1520.08,-258.44"/>
<polygon fill="#0691f9" stroke="black" points="1521.39,-255.19 1510.8,-255.42 1519.22,-261.84 1521.39,-255.19"/>
</g>
<!-- pandas&#45;&gt;data_pipeline_tests_test_data_loader -->
<g id="edge23" class="edge">
<title>pandas&#45;&gt;data_pipeline_tests_test_data_loader</title><style>.edge>path:hover{stroke-width:8}</style>
<path fill="none" stroke="black" d="M1648.56,-301.04C1649.61,-264.08 1595.44,-294.84 1573.56,-265.04 1538.6,-217.44 1602.73,-167.69 1554.56,-133.52"/>
<path fill="none" stroke="black" d="M1554.56,-131.52C1512.41,-102.5 1461.1,-75.04 1423.22,-56.1"/>
<polygon fill="#0691f9" stroke="black" points="1424.78,-52.97 1414.27,-51.67 1421.67,-59.24 1424.78,-52.97"/>
</g>
<!-- pandas&#45;&gt;data_pipeline_tests_test_duplicate_data -->
<g id="edge24" class="edge">
<title>pandas&#45;&gt;data_pipeline_tests_test_duplicate_data</title><style>.edge>path:hover{stroke-width:8}</style>
<path fill="none" stroke="black" d="M842.56,-301.04C825.79,-255.54 781.48,-289.42 739.56,-265.04 669.05,-224.04 607.13,-214.97 611.56,-133.52"/>
<path fill="none" stroke="black" d="M872.56,-375.44C864.21,-357.62 851.16,-328.32 842.56,-302.04"/>
<path fill="none" stroke="black" d="M611.56,-131.52C612.92,-88.88 654.59,-63.3 694.38,-48.55"/>
<polygon fill="#0691f9" stroke="black" points="695.52,-51.86 703.82,-45.26 693.22,-45.25 695.52,-51.86"/>
</g>
<!-- pandas&#45;&gt;data_pipeline_tests_test_missing_value -->
<g id="edge25" class="edge">
<title>pandas&#45;&gt;data_pipeline_tests_test_missing_value</title><style>.edge>path:hover{stroke-width:8}</style>
<path fill="none" stroke="black" d="M908.73,-391.47C1051.02,-388.29 1682.6,-370.29 1648.56,-302.04"/>
<path fill="none" stroke="black" d="M1648.56,-301.04C1650.26,-237.05 1120.62,-308.44 1073.56,-265.04 1030.14,-225 1043.32,-191.5 1054.56,-133.52"/>
</g>
<!-- requests -->
<g id="node23" class="node">
<title>requests</title><style>.edge>path:hover{stroke-width:8}</style>
<ellipse fill="#5419e6" stroke="black" cx="480.56" cy="-393.04" rx="31.66" ry="18"/>
<text xml:space="preserve" text-anchor="middle" x="480.56" y="-389.17" font-family="Helvetica,sans-Serif" font-size="10.00" fill="#ffffff">requests</text>
</g>
<!-- requests&#45;&gt;data_pipeline_scripts_bluebikes_data_helpers_download_data -->
<g id="edge26" class="edge">
<title>requests&#45;&gt;data_pipeline_scripts_bluebikes_data_helpers_download_data</title><style>.edge>path:hover{stroke-width:8}</style>
<path fill="none" stroke="black" d="M449.43,-388.52C377.68,-379.54 206.7,-352.83 205.56,-302.04"/>
<path fill="none" stroke="black" d="M205.56,-301.04C192.43,-269.89 163.57,-287.79 138.56,-265.04 127.29,-254.79 126.62,-250.02 119.56,-236.52"/>
</g>
<!-- requests&#45;&gt;data_pipeline_scripts_discord_notifier -->
<g id="edge27" class="edge">
<title>requests&#45;&gt;data_pipeline_scripts_discord_notifier</title><style>.edge>path:hover{stroke-width:8}</style>
<path fill="none" stroke="black" d="M205.56,-301.04C205.56,-293.21 205.56,-284.85 205.56,-276.83"/>
<polygon fill="#5419e6" stroke="black" points="209.06,-276.94 205.56,-266.94 202.06,-276.94 209.06,-276.94"/>
</g>
<!-- requests&#45;&gt;data_pipeline_scripts_school_noaa_data_collectors_BostonColleges -->
<g id="edge28" class="edge">
<title>requests&#45;&gt;data_pipeline_scripts_school_noaa_data_collectors_BostonColleges</title><style>.edge>path:hover{stroke-width:8}</style>
<path fill="none" stroke="black" d="M205.56,-301.04C205.56,-267.24 253.18,-292.74 272.56,-265.04 289.38,-241 294.18,-208.39 294.75,-181.65"/>
<polygon fill="#5419e6" stroke="black" points="298.25,-181.73 294.75,-171.73 291.25,-181.73 298.25,-181.73"/>
</g>
<!-- requests&#45;&gt;data_pipeline_scripts_school_noaa_data_collectors_NOAA_DataAcq -->
<g id="edge29" class="edge">
<title>requests&#45;&gt;data_pipeline_scripts_school_noaa_data_collectors_NOAA_DataAcq</title><style>.edge>path:hover{stroke-width:8}</style>
<path fill="none" stroke="black" d="M511.52,-388.51C580.45,-380.56 751.75,-360.26 894.56,-339.04 1089.41,-310.08 1167.15,-373.54 1331.56,-265.04 1357.61,-247.85 1343.59,-223.3 1369.56,-206 1371.16,-204.93 1553.58,-172.71 1673.62,-151.6"/>
<polygon fill="#5419e6" stroke="black" points="1673.94,-155.09 1683.19,-149.91 1672.73,-148.2 1673.94,-155.09"/>
</g>
<!-- tqdm -->
<g id="node24" class="node">
<title>tqdm</title><style>.edge>path:hover{stroke-width:8}</style>
<ellipse fill="#b653a8" stroke="black" cx="1868.56" cy="-393.04" rx="27" ry="18"/>
<text xml:space="preserve" text-anchor="middle" x="1868.56" y="-389.17" font-family="Helvetica,sans-Serif" font-size="10.00" fill="#ffffff">tqdm</text>
</g>
<!-- tqdm&#45;&gt;data_pipeline_scripts_school_noaa_data_collectors_NOAA_DataAcq -->
<g id="edge30" class="edge">
<title>tqdm&#45;&gt;data_pipeline_scripts_school_noaa_data_collectors_NOAA_DataAcq</title><style>.edge>path:hover{stroke-width:8}</style>
<path fill="none" stroke="black" d="M1865.64,-374.82C1864.54,-364.19 1864.41,-350.46 1868.56,-339.04"/>
</g>
</g>
</svg>
